<?xml version="1.0" encoding="utf-8"?>
<!-- Generator: Adobe Illustrator 16.2.0, SVG Export Plug-In . SVG Version: 6.00 Build 0)  -->
<!DOCTYPE svg PUBLIC "-//W3C//DTD SVG 1.1//EN" "http://www.w3.org/Graphics/SVG/1.1/DTD/svg11.dtd">
<svg version="1.1" id="Слой_1" xmlns="http://www.w3.org/2000/svg" xmlns:xlink="http://www.w3.org/1999/xlink" x="0px" y="0px"
	 width="36.851px" height="59.527px" viewBox="0 0 36.851 59.527" enable-background="new 0 0 36.851 59.527" xml:space="preserve">
<g>
	<polygon fill-rule="evenodd" clip-rule="evenodd" fill="#F79510" points="36.851,5.811 12.107,29.763 36.851,53.701 30.825,59.527 
		0,29.77 30.82,0 	"/>
	<path fill-rule="evenodd" clip-rule="evenodd" fill="#FFFFFF" d="M-75.155,443.569c0.559,0.013,1.118,0.037,1.677,0.037
		c100.088,0.002,200.176,0.001,300.265,0.001c20.474,0,40.946,0.001,61.42-0.001c0.56,0,1.119-0.024,1.679-0.037
		c-0.04,0.08-0.076,0.227-0.121,0.229c-0.318,0.021-0.64,0.011-0.959,0.011c-120.96,0-241.92,0-362.88-0.01
		C-74.435,443.8-74.795,443.649-75.155,443.569z"/>
</g>
</svg>
