<?xml version="1.0" encoding="UTF-8"?>
<!DOCTYPE svg PUBLIC "-//W3C//DTD SVG 1.1//EN" "http://www.w3.org/Graphics/SVG/1.1/DTD/svg11.dtd">
<!-- Creator: CorelDRAW X8 -->
<svg xmlns="http://www.w3.org/2000/svg" xml:space="preserve" width="210mm" height="297mm" version="1.1" style="shape-rendering:geometricPrecision; text-rendering:geometricPrecision; image-rendering:optimizeQuality; fill-rule:evenodd; clip-rule:evenodd"
viewBox="0 0 21000 29700"
 xmlns:xlink="http://www.w3.org/1999/xlink">
 <defs>
  <style type="text/css">
   <![CDATA[
    .fil0 {fill:#024959}
    .fil2 {fill:#BF2A2A}
    .fil1 {fill:#F2C777}
   ]]>
  </style>
 </defs>
 <g id="Слой_x0020_1">
  <metadata id="CorelCorpID_0Corel-Layer"/>
  <polygon class="fil0" points="4265,3581 6402,2347 6402,4122 6102,3949 5802,3776 5502,3949 5202,4122 5202,4469 5202,4815 5502,4989 5802,5162 4265,6049 "/>
  <polygon class="fil1" points="4040,3581 1902,2347 1902,4122 2202,3949 2502,3776 2802,3949 3102,4122 3102,4469 3102,4815 2802,4989 2502,5162 4040,6049 "/>
  <polygon class="fil2" points="4752,1265 6293,2154 4152,3383 2011,2154 3552,1265 3552,1611 3552,1957 3852,2131 4152,2304 4452,2131 4752,1957 4752,1611 "/>
 </g>
</svg>
