<?xml version="1.0" encoding="utf-8"?>
<!-- Generator: Adobe Illustrator 16.2.0, SVG Export Plug-In . SVG Version: 6.00 Build 0)  -->
<!DOCTYPE svg PUBLIC "-//W3C//DTD SVG 1.1//EN" "http://www.w3.org/Graphics/SVG/1.1/DTD/svg11.dtd">
<svg version="1.1" id="Слой_1" xmlns="http://www.w3.org/2000/svg" xmlns:xlink="http://www.w3.org/1999/xlink" x="0px" y="0px"
	 width="24px" height="24px" viewBox="0 0 24 24" enable-background="new 0 0 24 24" xml:space="preserve">
<g>
	<linearGradient id="SVGID_1_" gradientUnits="userSpaceOnUse" x1="11.9995" y1="1" x2="11.9995" y2="23.0005">
		<stop  offset="0" style="stop-color:#4A4A4A"/>
		<stop  offset="0.0792" style="stop-color:#525152"/>
		<stop  offset="0.2007" style="stop-color:#676767"/>
		<stop  offset="0.3493" style="stop-color:#8A898A"/>
		<stop  offset="0.5194" style="stop-color:#BBB9BA"/>
		<stop  offset="0.7052" style="stop-color:#F8F5F7"/>
		<stop  offset="0.7241" style="stop-color:#FFFCFD"/>
	</linearGradient>
	<circle fill-rule="evenodd" clip-rule="evenodd" fill="url(#SVGID_1_)" cx="12" cy="12" r="11"/>
	<path fill-rule="evenodd" clip-rule="evenodd" fill="#010101" d="M8.117,9.256c-0.055-0.387-0.01-0.767,0.082-1.144
		c0.102-0.423,0.332-0.744,0.729-0.94C8.988,7.141,9.051,7.109,9.102,7.06c0.205-0.123,0.387-0.276,0.58-0.416
		c0.264-0.188,0.537-0.355,0.832-0.49c0.068-0.03,0.139-0.046,0.209-0.064c0.121-0.03,0.238-0.059,0.336-0.151
		c0.08-0.078,0.191-0.104,0.305-0.107c0.766-0.024,1.512,0.048,2.223,0.37c0.314,0.142,0.639,0.256,0.932,0.442
		c0.289,0.207,0.527,0.459,0.699,0.771c0.127,0.234,0.189,0.49,0.25,0.746c0.072,0.595,0.043,1.188-0.008,1.782
		c-0.057,0.35-0.111,0.701-0.199,1.046c-0.012,0.049-0.012,0.072,0.057,0.063c0.213-0.029,0.301,0.047,0.328,0.263
		c0.016,0.114-0.008,0.227-0.008,0.34c-0.09,0.41-0.232,0.807-0.313,1.219c-0.018,0.093-0.025,0.188-0.037,0.28
		c-0.012,0.023-0.021,0.047-0.033,0.07c-0.09,0.203-0.211,0.254-0.42,0.175c-0.057-0.021-0.096-0.036-0.096,0.051
		c-0.002,0.501-0.051,0.998-0.158,1.488c-0.047,0.122-0.088,0.248-0.141,0.367c-0.072,0.159-0.172,0.299-0.348,0.361
		c-0.059,0.021-0.061,0.065-0.061,0.114c-0.006,0.416-0.008,0.833,0.051,1.247c0.02,0.223,0.063,0.441,0.146,0.65
		c0.049,0.119,0.127,0.211,0.24,0.275c0.289,0.164,0.598,0.278,0.918,0.355c0.793,0.191,1.582,0.395,2.342,0.699
		c0.242,0.103,0.486,0.203,0.729,0.308c0.109,0.047,0.107,0.056,0.014,0.133c-0.318,0.261-0.664,0.48-1.006,0.709
		c-0.549,0.318-1.113,0.605-1.709,0.828c-1.266,0.473-2.572,0.687-3.924,0.645c-1.746-0.055-3.371-0.529-4.875-1.422
		c-0.037-0.022-0.072-0.051-0.117-0.056c-0.43-0.272-0.836-0.575-1.223-0.904c-0.098-0.084-0.098-0.089,0.027-0.134
		c0.395-0.145,0.789-0.287,1.184-0.431c0.041-0.016,0.082-0.033,0.121-0.05c0.449-0.135,0.891-0.293,1.344-0.411
		c0.258-0.067,0.523-0.111,0.771-0.212c0.266-0.106,0.434-0.284,0.49-0.571c0.1-0.502,0.148-1.006,0.104-1.517
		c0.01-0.129-0.004-0.232-0.146-0.305c-0.146-0.075-0.219-0.232-0.283-0.381c-0.09-0.203-0.135-0.418-0.166-0.637
		c-0.006-0.035-0.014-0.071-0.021-0.106c-0.031-0.287-0.023-0.574-0.021-0.861c0-0.043,0.018-0.102-0.07-0.073
		c-0.273,0.086-0.404,0.024-0.521-0.237c-0.025-0.056-0.045-0.114-0.068-0.172c-0.066-0.4-0.127-0.804-0.27-1.185
		c-0.07-0.187-0.135-0.369-0.133-0.57c0.035-0.17,0.074-0.21,0.244-0.228c0.059-0.007,0.084-0.024,0.08-0.088
		c-0.039-0.587-0.07-1.176-0.146-1.76C8.133,9.298,8.123,9.277,8.117,9.256z"/>
</g>
</svg>
