<?xml version="1.0" encoding="utf-8"?>
<!-- Generator: Adobe Illustrator 16.2.0, SVG Export Plug-In . SVG Version: 6.00 Build 0)  -->
<!DOCTYPE svg PUBLIC "-//W3C//DTD SVG 1.1//EN" "http://www.w3.org/Graphics/SVG/1.1/DTD/svg11.dtd">
<svg version="1.1" id="Слой_1" xmlns="http://www.w3.org/2000/svg" xmlns:xlink="http://www.w3.org/1999/xlink" x="0px" y="0px"
	 width="24px" height="31.5px" viewBox="0 0 24 31.5" enable-background="new 0 0 24 31.5" xml:space="preserve">
<g>
	
		<polygon fill-rule="evenodd" clip-rule="evenodd" fill="#F8F619" stroke="#2C2A0B" stroke-width="0.6" stroke-miterlimit="10" points="
		9.634,15.809 7.27,11.711 9.634,7.616 14.365,7.616 16.729,11.711 14.365,15.809 	"/>
	<path fill-rule="evenodd" clip-rule="evenodd" fill="#F8F619" stroke="#2C2A0B" stroke-width="0.6" stroke-miterlimit="10" d="
		M23,11.875c0-6.075-4.926-11-11-11c-6.075,0-11,4.924-11,11c0,4.139,2.287,7.743,5.665,9.62v9.246h0.017L12,26.859l5.319,3.881
		h0.016v-9.246C20.713,19.617,23,16.014,23,11.875z M12,18.918c-3.89,0-7.043-3.152-7.043-7.043c0-3.89,3.153-7.043,7.043-7.043
		c3.889,0,7.043,3.153,7.043,7.043C19.043,15.766,15.889,18.918,12,18.918z"/>
</g>
</svg>
