<?xml version="1.0" encoding="utf-8"?>
<!-- Generator: Adobe Illustrator 16.2.0, SVG Export Plug-In . SVG Version: 6.00 Build 0)  -->
<!DOCTYPE svg PUBLIC "-//W3C//DTD SVG 1.1//EN" "http://www.w3.org/Graphics/SVG/1.1/DTD/svg11.dtd">
<svg version="1.1" id="Слой_1" xmlns="http://www.w3.org/2000/svg" xmlns:xlink="http://www.w3.org/1999/xlink" x="0px" y="0px"
	 width="24px" height="24px" viewBox="0 0 24 24" enable-background="new 0 0 24 24" xml:space="preserve">
<g>
	<linearGradient id="SVGID_1_" gradientUnits="userSpaceOnUse" x1="11.9995" y1="1" x2="11.9995" y2="23.0005">
		<stop  offset="0" style="stop-color:#F5F8D2"/>
		<stop  offset="1" style="stop-color:#F6D858"/>
	</linearGradient>
	<circle fill-rule="evenodd" clip-rule="evenodd" fill="url(#SVGID_1_)" cx="12" cy="12" r="11"/>
	<path fill-rule="evenodd" clip-rule="evenodd" fill="#010101" d="M8.117,9.257c-0.055-0.388-0.01-0.768,0.082-1.145
		c0.102-0.423,0.333-0.744,0.728-0.94c0.062-0.03,0.124-0.063,0.175-0.112c0.205-0.123,0.387-0.276,0.58-0.415
		c0.264-0.189,0.537-0.356,0.832-0.491c0.067-0.03,0.139-0.046,0.209-0.064c0.121-0.03,0.238-0.059,0.335-0.151
		c0.081-0.078,0.192-0.104,0.306-0.107c0.766-0.024,1.512,0.048,2.223,0.37c0.313,0.142,0.639,0.256,0.932,0.442
		c0.288,0.207,0.526,0.459,0.699,0.771c0.127,0.234,0.189,0.49,0.25,0.746c0.072,0.595,0.043,1.188-0.008,1.782
		c-0.057,0.351-0.111,0.701-0.199,1.046c-0.012,0.049-0.012,0.072,0.057,0.063c0.213-0.029,0.301,0.047,0.328,0.262
		c0.015,0.115-0.008,0.227-0.008,0.34c-0.09,0.41-0.232,0.807-0.312,1.219c-0.019,0.094-0.026,0.187-0.039,0.281
		c-0.011,0.023-0.021,0.047-0.032,0.07c-0.09,0.203-0.211,0.254-0.42,0.174c-0.057-0.021-0.097-0.035-0.097,0.051
		c-0.001,0.502-0.051,0.998-0.157,1.488c-0.047,0.123-0.088,0.248-0.141,0.367c-0.073,0.16-0.173,0.299-0.348,0.361
		c-0.059,0.021-0.061,0.066-0.061,0.115c-0.006,0.416-0.008,0.832,0.051,1.246c0.02,0.223,0.063,0.441,0.146,0.65
		c0.049,0.119,0.127,0.211,0.24,0.275c0.289,0.164,0.598,0.279,0.918,0.355c0.793,0.191,1.582,0.395,2.341,0.701
		c0.243,0.102,0.486,0.203,0.729,0.307c0.11,0.047,0.108,0.055,0.015,0.133c-0.318,0.26-0.664,0.48-1.005,0.709
		c-0.55,0.318-1.113,0.605-1.71,0.828c-1.266,0.473-2.573,0.686-3.924,0.645c-1.746-0.055-3.371-0.529-4.875-1.422
		c-0.037-0.023-0.072-0.051-0.118-0.057c-0.429-0.271-0.835-0.574-1.222-0.904c-0.099-0.084-0.098-0.088,0.026-0.133
		c0.395-0.145,0.79-0.287,1.185-0.432c0.041-0.016,0.081-0.033,0.121-0.049c0.449-0.135,0.891-0.293,1.344-0.412
		c0.258-0.066,0.522-0.111,0.771-0.211c0.266-0.107,0.434-0.285,0.49-0.572c0.1-0.502,0.148-1.006,0.103-1.516
		c0.011-0.129-0.004-0.232-0.146-0.305c-0.147-0.076-0.219-0.232-0.283-0.381c-0.09-0.203-0.135-0.418-0.166-0.637
		c-0.006-0.035-0.015-0.072-0.021-0.107c-0.031-0.285-0.023-0.574-0.021-0.861c0-0.043,0.018-0.102-0.071-0.072
		c-0.272,0.086-0.403,0.023-0.521-0.238c-0.025-0.055-0.045-0.113-0.068-0.172c-0.066-0.4-0.127-0.802-0.27-1.183
		c-0.07-0.188-0.135-0.369-0.133-0.57c0.035-0.17,0.074-0.209,0.243-0.229c0.059-0.006,0.085-0.023,0.081-0.086
		c-0.04-0.588-0.071-1.176-0.146-1.761C8.133,9.298,8.123,9.277,8.117,9.257z"/>
</g>
</svg>
